HIERARCHY
ROOT Hips
{
	OFFSET 0.00000 0.00000 0.00000
	CHANNELS 6 Xposition Yposition Zposition Zrotation Yrotation Xrotation 
	JOINT LHipJoint
	{
		OFFSET 0 0 0
		CHANNELS 3 Zrotation Yrotation Xrotation
		JOINT LeftUpLeg
		{
			OFFSET 1.40001 -1.72600 0.84541
			CHANNELS 3 Zrotation Yrotation Xrotation
			JOINT LeftLeg
			{
				OFFSET 2.34760 -6.44999 0.00000
				CHANNELS 3 Zrotation Yrotation Xrotation
				JOINT LeftFoot
				{
					OFFSET 2.50650 -6.88655 0.00000
					CHANNELS 3 Zrotation Yrotation Xrotation
					JOINT LeftToeBase
					{
						OFFSET 0.12464 -0.34243 1.95563
						CHANNELS 3 Zrotation Yrotation Xrotation
						End Site
						{
							OFFSET 0.00000 -0.00000 1.00479
						}
					}
				}
			}
		}
	}
	JOINT RHipJoint
	{
		OFFSET 0 0 0
		CHANNELS 3 Zrotation Yrotation Xrotation
		JOINT RightUpLeg
		{
			OFFSET -1.40958 -1.72600 0.84541
			CHANNELS 3 Zrotation Yrotation Xrotation
			JOINT RightLeg
			{
				OFFSET -2.37905 -6.53640 0.00000
				CHANNELS 3 Zrotation Yrotation Xrotation
				JOINT RightFoot
				{
					OFFSET -2.50470 -6.88163 0.00000
					CHANNELS 3 Zrotation Yrotation Xrotation
					JOINT RightToeBase
					{
						OFFSET -0.12236 -0.33619 1.81785
						CHANNELS 3 Zrotation Yrotation Xrotation
						End Site
						{
							OFFSET -0.00000 -0.00000 0.93746
						}
					}
				}
			}
		}
	}
	JOINT LowerBack
	{
		OFFSET 0 0 0
		CHANNELS 3 Zrotation Yrotation Xrotation
		JOINT Spine
		{
			OFFSET -0.02146 1.96915 0.26424
			CHANNELS 3 Zrotation Yrotation Xrotation
			JOINT Spine1
			{
				OFFSET 0.01522 1.99484 0.02086
				CHANNELS 3 Zrotation Yrotation Xrotation
				JOINT Neck
				{
					OFFSET 0 0 0
					CHANNELS 3 Zrotation Yrotation Xrotation
					JOINT Neck1
					{
						OFFSET -0.02954 1.71757 0.03505
						CHANNELS 3 Zrotation Yrotation Xrotation
						JOINT Head
						{
							OFFSET 0.04170 1.65781 -0.11024
							CHANNELS 3 Zrotation Yrotation Xrotation
							End Site
							{
								OFFSET 0.01600 1.81465 -0.05144
							}
						}
					}
				}
				JOINT LeftShoulder
				{
					OFFSET 0 0 0
					CHANNELS 3 Zrotation Yrotation Xrotation
					JOINT LeftArm
					{
						OFFSET 2.77679 1.60868 -0.78649
						CHANNELS 3 Zrotation Yrotation Xrotation
						JOINT LeftForeArm
						{
							OFFSET 4.62672 -0.00000 -0.00000
							CHANNELS 3 Zrotation Yrotation Xrotation
							JOINT LeftHand
							{
								OFFSET 3.11018 -0.00000 -0.00000
								CHANNELS 3 Zrotation Yrotation Xrotation
								JOINT LeftFingerBase
								{
									OFFSET 0 0 0
									CHANNELS 3 Zrotation Yrotation Xrotation
									JOINT LeftHandIndex1
									{
										OFFSET 0.74383 -0.00000 -0.00000
										CHANNELS 3 Zrotation Yrotation Xrotation
										End Site
										{
											OFFSET 0.59970 -0.00000 -0.00000
										}
									}
								}
								JOINT LThumb
								{
									OFFSET 0 0 0
									CHANNELS 3 Zrotation Yrotation Xrotation
									End Site
									{
										OFFSET 0.60885 -0.00000 0.60885
									}
								}
							}
						}
					}
				}
				JOINT RightShoulder
				{
					OFFSET 0 0 0
					CHANNELS 3 Zrotation Yrotation Xrotation
					JOINT RightArm
					{
						OFFSET -2.73247 1.63658 -0.74740
						CHANNELS 3 Zrotation Yrotation Xrotation
						JOINT RightForeArm
						{
							OFFSET -4.55919 -0.00000 -0.00000
							CHANNELS 3 Zrotation Yrotation Xrotation
							JOINT RightHand
							{
								OFFSET -3.22748 -0.00000 -0.00000
								CHANNELS 3 Zrotation Yrotation Xrotation
								JOINT RightFingerBase
								{
									OFFSET 0 0 0
									CHANNELS 3 Zrotation Yrotation Xrotation
									JOINT RightHandIndex1
									{
										OFFSET -0.70088 -0.00000 -0.00000
										CHANNELS 3 Zrotation Yrotation Xrotation
										End Site
										{
											OFFSET -0.56507 -0.00000 -0.00000
										}
									}
								}
								JOINT RThumb
								{
									OFFSET 0 0 0
									CHANNELS 3 Zrotation Yrotation Xrotation
									End Site
									{
										OFFSET -0.57370 -0.00000 0.57370
									}
								}
							}
						}
					}
				}
			}
		}
	}
}
MOTION
Frames: 15
Frame Time: .0083333
-0.7094 15.887 -44.6927 0 0 0 0 0 0 -21 0 0 0 0 0 0 0 0 0 0 0 0 0 0 21 0 0 0 0 0 0 0 0 0 0 0 0 0 0 0 0 0 0 0 0 0 0 -16 0 0 21 0 0 11 0 0 0 -8 0 0 0 0 0 0 0 0 0 0 0 0 0 0 0 0 0 0 0 0 8 0 0 0 0 0 0 0 0 0 0 0 0 0 0 0 0 0
-0.7094 15.8870 -44.6927 -0.4265 3.5291 18.2788 0.0000 0.0000 0.0000 -18.7591 -3.6530 -6.2241 5.8350 14.2665 44.3158 0.1296 -13.1040 20.1308 2.5875 -9.9954 -28.9617 0.0000 0.0000 0.0000 14.8422 15.6023 -51.4168 -4.5000 -12.7975 38.6152 0.0136 7.7476 -5.1304 -0.6789 5.2683 -14.6753 3.7299 -2.6160 -16.3907 2.9893 -4.2522 -3.9021 0.1948 -2.0618 4.9638 1.6850 -0.5583 -5.4666 -4.8419 -0.6120 4.3785 -1.8727 -0.4201 2.3244 -0.0000 -0.0000 0.0000 -81.2492 -9.1914 25.5952 37.1271 -46.2727 -16.3318 -0.0000 0.0000 -14.6254 24.8996 -16.1108 -7.3397 -7.1250 0.0000 -0.0000 -1.8911 12.3236 1.4447 -0.0000 -0.0000 0.0000 89.0267 -20.2097 -58.4793 -6.0353 10.3211 -0.5456 0.0000 0.0000 48.1978 -19.1723 -32.7562 10.6543 7.1250 -0.0000 -0.0000 16.2626 -63.5267 -7.4063
-0.7200 15.9087 -44.4660 -0.7801 3.3940 18.1084 0.0000 0.0000 0.0000 -18.2387 -4.1149 -7.8357 6.6614 15.0400 47.5816 0.6268 -11.0446 22.7583 1.9358 -8.7311 -24.9577 0.0000 0.0000 0.0000 15.6167 15.7285 -50.5210 -4.5860 -12.9018 39.0019 -0.0355 7.4593 -5.9874 -0.6861 5.2957 -14.7538 3.9214 -2.4498 -15.3583 3.1461 -3.9897 -4.3403 0.3651 -1.9560 3.9460 1.6430 -0.6507 -5.6246 -4.9442 -0.7039 5.0185 -1.9143 -0.4780 2.5640 0.0000 0.0000 0.0000 -81.6885 -7.9850 25.8919 36.4129 -45.7951 -15.8178 -0.0000 0.0000 -14.6338 24.7249 -15.8788 -7.1807 -7.1250 0.0000 -0.0000 -1.9890 12.5989 1.5082 0.0000 0.0000 0.0000 89.0417 -20.2345 -56.0740 -6.2219 10.6318 -0.5795 0.0000 0.0000 44.3334 -18.6406 -34.2809 10.7580 7.1250 -0.0000 -0.0000 18.2571 -64.8280 -8.8968
-0.7226 15.9387 -44.2263 -0.8853 3.7164 17.9269 0.0000 0.0000 0.0000 -17.8093 -4.6763 -9.2349 7.4272 15.6813 50.4722 1.1644 -6.8282 23.9171 0.4236 -4.1774 -11.5762 0.0000 0.0000 0.0000 16.2762 15.1330 -49.6613 -4.6884 -13.0241 39.4586 -0.0884 7.5790 -7.0733 -0.6980 5.3407 -14.8828 4.1084 -2.4170 -15.1591 3.1194 -3.9562 -4.4135 0.2504 -1.9431 3.7468 1.6279 -0.7162 -5.3726 -4.8077 -0.7971 5.0297 -1.8667 -0.5174 2.5167 -0.0000 0.0000 0.0000 -82.0406 -7.2705 26.0845 35.0230 -44.8285 -14.8296 -0.0000 0.0000 -13.7059 24.4262 -16.6040 -7.3946 -7.1250 0.0000 -0.0000 -2.2460 11.8566 1.7380 -0.0000 0.0000 0.0000 89.2360 -19.7453 -54.8493 -6.2396 10.6612 -0.5828 0.0000 0.0000 42.8131 -18.6765 -34.2811 10.7797 7.1250 -0.0000 -0.0000 18.2158 -64.8380 -8.8802
-0.7241 15.9660 -43.9898 -0.7886 4.0500 17.8456 0.0000 0.0000 0.0000 -17.6080 -5.1418 -10.7399 8.1975 16.2626 53.2708 1.2324 -5.2111 23.4442 0.5325 -4.6759 -12.9865 0.0000 0.0000 0.0000 16.6900 14.4116 -48.8743 -4.7706 -13.1207 39.8221 -0.1501 7.7834 -8.2259 -0.7714 5.6083 -15.6521 4.0503 -2.4127 -15.3447 3.0390 -3.9518 -4.3445 0.1886 -1.9365 3.9179 1.6865 -0.7161 -5.1249 -4.6100 -0.8166 4.8940 -1.8072 -0.5157 2.4240 0.0000 0.0000 0.0000 -82.4899 -6.7341 26.1089 34.1124 -44.1678 -14.1913 -0.0000 0.0000 -13.4240 23.4075 -15.8908 -6.7596 -7.1250 0.0000 -0.0000 -2.8712 12.7613 2.1689 0.0000 0.0000 0.0000 89.3458 -18.8711 -56.4243 -6.0715 10.3814 -0.5521 0.0000 0.0000 44.6761 -18.7104 -32.8203 10.4019 7.1250 -0.0000 -0.0000 16.8433 -63.4654 -7.6542
-0.7277 15.9940 -43.7569 -1.0211 4.1198 17.7785 0.0000 0.0000 0.0000 -17.1414 -5.3010 -12.3670 8.9605 16.7822 55.9534 1.0884 -4.8776 22.0349 0.7921 -5.6813 -15.8625 0.0000 0.0000 0.0000 17.3498 14.1369 -47.9779 -4.8370 -13.1979 40.1137 -0.2388 7.6792 -9.5438 -0.9750 6.2860 -17.6165 4.1961 -2.2541 -14.5675 3.1167 -3.6910 -4.8702 0.2839 -1.8313 2.9462 1.7067 -0.7852 -4.9918 -4.5952 -0.8902 5.5066 -1.8163 -0.5553 2.6012 -0.0000 0.0000 0.0000 -83.1304 -5.4065 26.1958 33.2098 -43.4907 -13.5662 -0.0000 0.0000 -13.2500 22.2965 -15.2874 -6.1706 -7.1250 0.0000 -0.0000 -3.5785 13.5450 2.6461 -0.0000 0.0000 0.0000 89.2344 -18.5613 -61.4290 -5.8178 9.9579 -0.5073 0.0000 0.0000 49.4725 -18.5612 -29.3076 9.3340 7.1250 -0.0000 -0.0000 14.3592 -60.0359 -5.3339
-0.7313 16.0258 -43.5293 -1.3861 4.1206 17.6958 0.0000 0.0000 0.0000 -16.5243 -5.2322 -14.1683 9.7200 17.2494 58.5485 0.8016 -4.8227 19.3333 1.1057 -6.6811 -18.7739 0.0000 0.0000 0.0000 18.0383 14.1181 -46.9864 -4.8863 -13.2546 40.3293 -0.3144 7.6069 -10.5785 -0.9510 6.2103 -17.3958 4.3635 -2.0784 -16.1257 3.2139 -3.6463 -3.8299 0.2073 -1.7578 4.8830 1.7476 -0.8489 -5.6504 -4.5966 -0.9918 5.2193 -1.8326 -0.6097 2.6243 0.0000 -0.0000 0.0000 -83.6022 -6.4737 25.8915 31.7985 -42.3859 -12.6047 -0.0000 0.0000 -13.0227 21.6855 -15.0063 -5.8786 -7.1250 0.0000 -0.0000 -3.9752 13.9158 2.9097 0.0000 -0.0000 0.0000 89.5229 -16.0289 -55.7309 -6.0615 10.3646 -0.5503 0.0000 0.0000 44.6989 -18.4495 -33.9198 10.5459 7.1250 -0.0000 -0.0000 18.1317 -64.4362 -8.6690
-0.7341 16.0522 -43.3097 -1.5883 4.1439 17.7032 0.0000 0.0000 0.0000 -16.0592 -5.0648 -16.1532 10.4710 17.6664 61.0514 0.5610 -4.7953 16.7118 0.7410 -5.4989 -15.3373 0.0000 0.0000 0.0000 18.5144 14.0181 -46.1134 -4.9139 -13.2862 40.4496 -0.3711 7.6959 -11.3439 -0.7849 5.6557 -15.7888 4.4766 -1.9017 -15.3373 3.2679 -3.3500 -4.3740 0.2999 -1.6374 3.8839 1.9227 -0.9760 -5.7331 -4.8438 -1.1336 6.0359 -1.9673 -0.6924 2.9109 -0.0000 0.0000 0.0000 -84.2124 -5.2638 26.0382 30.4343 -41.2628 -11.6950 -0.0000 0.0000 -12.3533 21.5178 -14.8439 -5.7677 -7.1250 0.0000 -0.0000 -4.0802 14.1071 2.9704 -0.0000 0.0000 0.0000 89.8519 -16.0725 -49.0931 -6.3344 10.8188 -0.6004 0.0000 0.0000 39.6442 -18.6183 -36.3006 11.2795 7.1250 -0.0000 -0.0000 20.4107 -66.6957 -10.8605
-0.7386 16.0768 -43.0942 -1.6036 4.2447 17.7323 0.0000 0.0000 0.0000 -15.8171 -5.0967 -18.0933 11.1851 18.0245 63.3811 0.3416 -4.6632 13.7514 0.6400 -5.1180 -14.2453 0.0000 0.0000 0.0000 18.8224 13.7572 -45.2850 -4.9305 -13.3051 40.5217 -0.4383 7.8243 -12.2042 -0.6812 5.2773 -14.7012 4.3023 -1.8226 -15.0801 3.3244 -3.1890 -4.6506 0.5006 -1.5685 3.4702 1.9378 -1.0630 -5.4816 -5.0061 -1.2279 6.3369 -2.0295 -0.7444 2.9620 -0.0000 -0.0000 0.0000 -84.8801 -4.4494 25.9801 28.8896 -39.9224 -10.6898 -0.0000 0.0000 -11.2352 21.6456 -15.0118 -5.8689 -7.1250 0.0000 -0.0000 -4.0024 13.9144 2.9298 -0.0000 -0.0000 0.0000 89.9584 -15.6167 -44.5916 -6.5326 11.1474 -0.6382 0.0000 0.0000 36.4468 -18.2168 -36.2701 11.0175 7.1250 -0.0000 -0.0000 20.8451 -66.5502 -11.0310
-0.7428 16.1073 -42.8795 -1.6936 4.3974 17.6956 0.0000 0.0000 0.0000 -15.4904 -5.2452 -19.9755 11.8447 18.3242 65.4956 0.1945 -4.3159 11.0541 0.7373 -5.4856 -15.2990 0.0000 0.0000 0.0000 19.2444 13.4571 -44.3073 -4.9284 -13.3027 40.5125 -0.5132 7.8785 -13.0874 -0.6727 5.2449 -14.6085 4.2493 -1.7996 -15.5730 3.3854 -3.1981 -4.4259 0.5705 -1.5609 3.9793 1.7370 -1.0950 -5.2120 -4.8619 -1.2674 6.2039 -1.9397 -0.7595 2.8641 -0.0000 0.0000 0.0000 -85.4105 -4.1718 25.6254 27.4455 -38.6007 -9.7758 -0.0000 0.0000 -10.2841 21.7594 -15.4833 -6.0823 -7.1250 0.0000 -0.0000 -3.9517 13.4009 2.9354 -0.0000 0.0000 0.0000 89.9356 -14.1203 -42.3880 -6.6088 11.2736 -0.6530 0.0000 0.0000 35.2821 -17.8443 -35.6294 10.6213 7.1250 -0.0000 -0.0000 20.5614 -65.8561 -10.5490
-0.7449 16.1408 -42.6663 -1.6034 4.2868 17.7221 0.0000 0.0000 0.0000 -15.4492 -5.3365 -21.8524 12.4068 18.5574 67.2725 0.1146 -3.7432 8.8785 0.7101 -5.3858 -15.0122 0.0000 0.0000 0.0000 19.4124 13.2640 -43.3516 -4.9062 -13.2774 40.4158 -0.5799 8.0686 -13.8594 -0.6125 5.0092 -13.9348 3.8382 -1.7395 -16.2263 3.4992 -3.1167 -4.1506 0.9094 -1.5086 4.6537 1.4275 -1.1553 -5.1316 -4.7824 -1.3276 6.2348 -1.8591 -0.7936 2.8575 0.0000 -0.0000 0.0000 -86.1287 -4.0749 25.1691 25.9713 -37.1804 -8.8703 -0.0000 0.0000 -9.5169 21.6826 -15.8114 -6.1829 -7.1250 0.0000 -0.0000 -4.0221 13.0621 3.0166 0.0000 -0.0000 0.0000 89.6879 -12.4829 -40.2260 -6.6440 11.3319 -0.6599 0.0000 0.0000 34.1349 -17.8237 -35.2192 10.5047 7.1250 -0.0000 -0.0000 20.1455 -65.4730 -10.1505
-0.7497 16.1769 -42.4554 -1.4975 3.9689 17.8154 0.0000 0.0000 0.0000 -15.4756 -5.3027 -23.8011 12.8613 18.7315 68.6941 0.0650 -3.1876 7.0424 0.6281 -5.0714 -14.1124 0.0000 0.0000 0.0000 19.5244 13.2609 -42.3728 -4.8578 -13.2218 40.2045 -0.6598 8.1748 -14.7164 -0.6372 5.1071 -14.2143 3.6189 -1.5455 -15.9419 3.3698 -2.7855 -4.4473 0.9733 -1.3560 4.1926 1.4317 -1.1747 -5.2077 -4.7105 -1.3336 6.9723 -1.8513 -0.8016 3.1229 -0.0000 0.0000 0.0000 -86.4972 -3.2917 24.8969 24.5404 -35.7306 -8.0200 -0.0000 0.0000 -8.7849 21.5872 -15.1956 -5.9210 -7.1250 0.0000 -0.0000 -4.0519 13.7261 2.9823 -0.0000 0.0000 0.0000 89.8785 -11.9747 -35.7487 -6.8988 11.7525 -0.7109 0.0000 0.0000 30.2624 -18.4995 -35.5628 11.0118 7.1250 -0.0000 -0.0000 19.7300 -65.9822 -10.1645
-0.7540 16.2149 -42.2450 -1.2717 3.7672 17.8056 0.0000 0.0000 0.0000 -15.6440 -5.3069 -25.5327 13.2092 18.8564 69.7741 0.0318 -2.6330 5.3361 0.6852 -5.2924 -14.7445 0.0000 0.0000 0.0000 19.5648 13.0332 -41.2943 -4.7935 -13.1474 39.9228 -0.7464 8.2034 -15.5864 -0.6675 5.2248 -14.5510 3.2289 -1.3663 -15.5359 3.1822 -2.4442 -4.6892 1.0727 -1.1966 3.7293 1.6450 -1.2414 -5.4264 -4.7247 -1.4162 7.6951 -1.9159 -0.8456 3.4106 0.0000 0.0000 0.0000 -86.8788 -2.4120 24.7650 23.1793 -34.2842 -7.2390 -0.0000 0.0000 -7.5825 22.0677 -14.4341 -5.7703 -7.1250 0.0000 -0.0000 -3.6855 14.4805 2.6524 0.0000 0.0000 0.0000 90.1626 -11.3513 -32.0189 -7.1528 12.1704 -0.7635 0.0000 0.0000 27.0579 -19.0644 -35.6838 11.3972 7.1250 -0.0000 -0.0000 19.2007 -66.2571 -10.0037
-0.7489 16.2527 -42.0302 -1.0414 3.8074 17.6569 0.0000 0.0000 0.0000 -15.8489 -5.5322 -26.9723 13.4741 18.9467 70.5918 0.0104 -2.1812 3.8084 0.7332 -5.4707 -15.2562 0.0000 0.0000 0.0000 19.6748 12.4588 -40.0847 -4.7183 -13.0594 39.5912 -0.8301 8.1933 -16.3857 -0.7512 5.5358 -15.4433 2.9694 -1.3126 -16.0218 3.0254 -2.3667 -4.3193 1.0517 -1.1493 4.3861 1.7208 -1.3411 -5.5415 -4.6942 -1.5556 7.8246 -1.9302 -0.9133 3.4725 -0.0000 0.0000 0.0000 -87.2253 -2.3861 24.2990 21.5477 -32.4621 -6.3414 -0.0000 0.0000 -6.0534 22.5750 -14.3698 -5.8909 -7.1250 0.0000 -0.0000 -3.3370 14.4915 2.3999 -0.0000 0.0000 0.0000 90.2008 -9.3819 -30.9253 -7.0628 12.0226 -0.7447 0.0000 0.0000 27.0195 -19.1418 -34.7975 11.2042 7.1250 -0.0000 -0.0000 18.1857 -65.4527 -9.1233
-0.7446 16.2841 -41.8226 -0.8407 3.8732 17.5503 0.0000 0.0000 0.0000 -15.9877 -5.7442 -28.4874 13.6940 19.0186 71.2676 0.0001 -1.8084 2.5890 0.5040 -4.5509 -12.6320 0.0000 0.0000 0.0000 19.7432 12.0561 -38.9149 -4.6371 -12.9631 39.2306 -0.9046 8.1122 -17.0656 -0.7791 5.6353 -15.7299 2.8534 -1.3632 -15.8271 2.9383 -2.3922 -4.5060 1.0273 -1.1668 4.0848 1.4150 -1.3881 -5.0903 -4.5714 -1.5890 8.1852 -1.8343 -0.9326 3.5100 -0.0000 0.0000 0.0000 -87.6768 -1.9716 23.0284 19.4841 -30.0158 -5.2708 -0.0000 0.0000 -4.3334 22.2534 -13.8869 -5.6088 -7.1250 0.0000 -0.0000 -3.5303 15.0434 2.4978 -0.0000 0.0000 0.0000 90.0773 -8.2898 -28.6742 -7.0691 12.0330 -0.7460 0.0000 0.0000 26.1732 -19.3721 -34.2493 11.1933 7.1250 -0.0000 -0.0000 17.3801 -65.0012 -8.5265
